{
  "accessors": [
    {
      "bufferView": 2,
      "componentType": 5126,
      "count": 65532,
      "max": [
        0.6754289865493774,
        5.91162109375,
        0.4776119887828827
      ],
      "min": [
        -0.3453249931335449,
        5.018448829650879,
        -0.5104039907455444
      ],
      "type": "VEC3"
    },
    {
      "bufferView": 2,
      "byteOffset": 786384,
      "componentType": 5126,
      "count": 65532,
      "max": [
        0.9998982548713684,
        0.9999424815177917,
        0.9999120235443115
      ],
      "min": [
        -0.999917209148407,
        -0.9999833106994629,
        -0.9999925494194031
      ],
      "type": "VEC3"
    },
    {
      "bufferView": 1,
      "componentType": 5126,
      "count": 65532,
      "max": [
        0.8749380111694336,
        1.0
      ],
      "min": [
        0.0,
        0.2836570143699646
      ],
      "type": "VEC2"
    },
    {
      "bufferView": 0,
      "componentType": 5125,
      "count": 336180,
      "type": "SCALAR"
    },
    {
      "bufferView": 2,
      "byteOffset": 1572768,
      "componentType": 5126,
      "count": 65532,
      "max": [
        0.6752809882164001,
        5.913668155670166,
        0.5169820189476013
      ],
      "min": [
        -0.3419030010700226,
        5.02180814743042,
        -0.48469600081443787
      ],
      "type": "VEC3"
    },
    {
      "bufferView": 2,
      "byteOffset": 2359152,
      "componentType": 5126,
      "count": 65532,
      "max": [
        0.9999803304672241,
        0.9999172687530518,
        0.999994158744812
      ],
      "min": [
        -0.9999544620513916,
        -0.9999989867210388,
        -0.9998696446418762
      ],
      "type": "VEC3"
    },
    {
      "bufferView": 1,
      "byteOffset": 524256,
      "componentType": 5126,
      "count": 65532,
      "max": [
        0.9112319946289063,
        0.9888190031051636
      ],
      "min": [
        0.005160000175237656,
        0.0
      ],
      "type": "VEC2"
    },
    {
      "bufferView": 0,
      "byteOffset": 1344720,
      "componentType": 5125,
      "count": 324636,
      "type": "SCALAR"
    },
    {
      "bufferView": 2,
      "byteOffset": 3145536,
      "componentType": 5126,
      "count": 64792,
      "max": [
        0.6754289865493774,
        5.913668155670166,
        0.5169820189476013
      ],
      "min": [
        -0.3420169949531555,
        5.018448829650879,
        -0.4306179881095886
      ],
      "type": "VEC3"
    },
    {
      "bufferView": 2,
      "byteOffset": 3923040,
      "componentType": 5126,
      "count": 64792,
      "max": [
        0.9998982548713684,
        0.9998765587806702,
        0.999994158744812
      ],
      "min": [
        -0.999917209148407,
        -0.9999502301216125,
        -0.999735951423645
      ],
      "type": "VEC3"
    },
    {
      "bufferView": 1,
      "byteOffset": 1048512,
      "componentType": 5126,
      "count": 64792,
      "max": [
        0.9089130163192749,
        0.9986770153045654
      ],
      "min": [
        0.0016080000204965472,
        0.0002280000044265762
      ],
      "type": "VEC2"
    },
    {
      "bufferView": 0,
      "byteOffset": 2643264,
      "componentType": 5125,
      "count": 260202,
      "type": "SCALAR"
    }
  ],
  "asset": {
    "extras": {
      "author": "Digital Atlas of Ancient Life (https://sketchfab.com/DigitalAtlasOfAncientLife)",
      "license": "CC0-1.0 (http://creativecommons.org/publicdomain/zero/1.0/)",
      "source": "https://sketchfab.com/3d-models/echinoid-strongylocentrotus-pri-78783-ff7eca213f1b4afcb22ec5457f244c1b",
      "title": "Echinoid: Strongylocentrotus (PRI 78783)"
    },
    "generator": "Sketchfab-12.67.0",
    "version": "2.0"
  },
  "bufferViews": [
    {
      "buffer": 0,
      "byteLength": 3684072,
      "name": "floatBufferViews",
      "target": 34963
    },
    {
      "buffer": 0,
      "byteLength": 1566848,
      "byteOffset": 3684072,
      "byteStride": 8,
      "name": "floatBufferViews",
      "target": 34962
    },
    {
      "buffer": 0,
      "byteLength": 4700544,
      "byteOffset": 5250920,
      "byteStride": 12,
      "name": "floatBufferViews",
      "target": 34962
    }
  ],
  "buffers": [
    {
      "byteLength": 9951464,
      "uri": "scene.bin"
    }
  ],
  "extensionsUsed": [
    "KHR_materials_unlit"
  ],
  "images": [
    {
      "uri": "textures/LivingFossil_7_baseColor.jpeg"
    }
  ],
  "materials": [
    {
      "doubleSided": true,
      "extensions": {
        "KHR_materials_unlit": {}
      },
      "name": "LivingFossil_7",
      "pbrMetallicRoughness": {
        "baseColorTexture": {
          "index": 0
        },
        "metallicFactor": 0.0
      }
    }
  ],
  "meshes": [
    {
      "name": "Object_0",
      "primitives": [
        {
          "attributes": {
            "NORMAL": 1,
            "POSITION": 0,
            "TEXCOORD_0": 2
          },
          "indices": 3,
          "material": 0,
          "mode": 4
        }
      ]
    },
    {
      "name": "Object_1",
      "primitives": [
        {
          "attributes": {
            "NORMAL": 5,
            "POSITION": 4,
            "TEXCOORD_0": 6
          },
          "indices": 7,
          "material": 0,
          "mode": 4
        }
      ]
    },
    {
      "name": "Object_2",
      "primitives": [
        {
          "attributes": {
            "NORMAL": 9,
            "POSITION": 8,
            "TEXCOORD_0": 10
          },
          "indices": 11,
          "material": 0,
          "mode": 4
        }
      ]
    }
  ],
  "nodes": [
    {
      "children": [
        1
      ],
      "matrix": [
        0.9374552369117737,
        0.331381618976593,
        -0.10660170763730996,
        0.0,
        0.3468671441078186,
        -0.8634293079376222,
        0.3662962913513182,
        0.0,
        0.02934081479907036,
        -0.3803629875183103,
        -0.9243717193603517,
        0.0,
        -1.8857700824737549,
        4.669401645660402,
        -7.447622299194335,
        1.0
      ],
      "name": "Sketchfab_model"
    },
    {
      "children": [
        2,
        3,
        4
      ],
      "name": "LivingFossil_7.obj.cleaner.materialmerger.gles"
    },
    {
      "mesh": 0,
      "name": "Object_2"
    },
    {
      "mesh": 1,
      "name": "Object_3"
    },
    {
      "mesh": 2,
      "name": "Object_4"
    }
  ],
  "samplers": [
    {
      "magFilter": 9729,
      "minFilter": 9987,
      "wrapS": 10497,
      "wrapT": 10497
    }
  ],
  "scene": 0,
  "scenes": [
    {
      "name": "Sketchfab_Scene",
      "nodes": [
        0
      ]
    }
  ],
  "textures": [
    {
      "sampler": 0,
      "source": 0
    }
  ]
}
