{
  "accessors": [
    {
      "bufferView": 2,
      "componentType": 5126,
      "count": 39576,
      "max": [
        10.934664726257324,
        17.133026123046875,
        10.088055610656738
      ],
      "min": [
        -10.491668701171875,
        0.0,
        -9.951909065246582
      ],
      "type": "VEC3"
    },
    {
      "bufferView": 2,
      "byteOffset": 474912,
      "componentType": 5126,
      "count": 39576,
      "max": [
        0.9999650716781616,
        0.9999973177909851,
        0.9999756813049316
      ],
      "min": [
        -0.9999923706054688,
        -0.9999886751174927,
        -0.9998794794082642
      ],
      "type": "VEC3"
    },
    {
      "bufferView": 1,
      "componentType": 5126,
      "count": 39576,
      "max": [
        1.0005645751953125,
        0.9996500015258789
      ],
      "min": [
        -0.000559310254175216,
        0.010354459285736084
      ],
      "type": "VEC2"
    },
    {
      "bufferView": 1,
      "byteOffset": 316608,
      "componentType": 5126,
      "count": 39576,
      "max": [
        1.0005645751953125,
        0.9996500015258789
      ],
      "min": [
        -0.000559310254175216,
        0.010354459285736084
      ],
      "type": "VEC2"
    },
    {
      "bufferView": 1,
      "byteOffset": 633216,
      "componentType": 5126,
      "count": 39576,
      "max": [
        1.0005645751953125,
        0.9996500015258789
      ],
      "min": [
        -0.000559310254175216,
        0.010354459285736084
      ],
      "type": "VEC2"
    },
    {
      "bufferView": 0,
      "componentType": 5125,
      "count": 175665,
      "type": "SCALAR"
    }
  ],
  "asset": {
    "extras": {
      "author": "ADamAReese (https://sketchfab.com/ADamAReese)",
      "license": "CC-BY-4.0 (http://creativecommons.org/licenses/by/4.0/)",
      "source": "https://sketchfab.com/3d-models/red-sea-urchin-small-2adc33a3a8c74a3c8759745c46c612ff",
      "title": "Red Sea Urchin Small"
    },
    "generator": "Sketchfab-12.66.0",
    "version": "2.0"
  },
  "bufferViews": [
    {
      "buffer": 0,
      "byteLength": 702660,
      "name": "floatBufferViews",
      "target": 34963
    },
    {
      "buffer": 0,
      "byteLength": 949824,
      "byteOffset": 702660,
      "byteStride": 8,
      "name": "floatBufferViews",
      "target": 34962
    },
    {
      "buffer": 0,
      "byteLength": 949824,
      "byteOffset": 1652484,
      "byteStride": 12,
      "name": "floatBufferViews",
      "target": 34962
    }
  ],
  "buffers": [
    {
      "byteLength": 2602308,
      "uri": "scene.bin"
    }
  ],
  "extensionsRequired": [
    "KHR_materials_pbrSpecularGlossiness"
  ],
  "extensionsUsed": [
    "KHR_materials_pbrSpecularGlossiness"
  ],
  "images": [
    {
      "uri": "textures/material_diffuse.png"
    },
    {
      "uri": "textures/material_specularGlossiness.png"
    }
  ],
  "materials": [
    {
      "alphaCutoff": 0.0,
      "alphaMode": "MASK",
      "doubleSided": true,
      "extensions": {
        "KHR_materials_pbrSpecularGlossiness": {
          "diffuseFactor": [
            1.0,
            1.0,
            1.0,
            1.0
          ],
          "diffuseTexture": {
            "index": 0
          },
          "glossinessFactor": 1.0,
          "specularFactor": [
            1.0,
            1.0,
            1.0
          ],
          "specularGlossinessTexture": {
            "index": 1
          }
        }
      },
      "name": "material"
    }
  ],
  "meshes": [
    {
      "name": "Object_0",
      "primitives": [
        {
          "attributes": {
            "NORMAL": 1,
            "POSITION": 0,
            "TEXCOORD_0": 2,
            "TEXCOORD_1": 3,
            "TEXCOORD_2": 4
          },
          "indices": 5,
          "material": 0,
          "mode": 4
        }
      ]
    }
  ],
  "nodes": [
    {
      "children": [
        1
      ],
      "matrix": [
        5.727376937866211,
        0.0,
        0.0,
        0.0,
        0.0,
        1.2717331494252384e-15,
        -5.727376937866211,
        0.0,
        0.0,
        5.727376937866211,
        1.2717331494252384e-15,
        0.0,
        0.0,
        0.0,
        0.0,
        1.0
      ],
      "name": "Sketchfab_model"
    },
    {
      "children": [
        2
      ],
      "name": "root"
    },
    {
      "children": [
        3
      ],
      "matrix": [
        1.0,
        0.0,
        0.0,
        0.0,
        0.0,
        2.220446049250313e-16,
        1.0,
        0.0,
        0.0,
        -1.0,
        2.220446049250313e-16,
        0.0,
        0.0,
        0.0,
        0.0,
        1.0
      ],
      "name": "GLTF_SceneRootNode"
    },
    {
      "children": [
        4
      ],
      "name": "root_0"
    },
    {
      "children": [
        5
      ],
      "matrix": [
        0.0034283201675862074,
        0.0,
        0.0,
        0.0,
        0.0,
        0.0034283201675862074,
        0.0,
        0.0,
        0.0,
        0.0,
        0.0034283201675862074,
        0.0,
        -0.024585528299212456,
        -0.30100002884864807,
        0.46085038781166077,
        1.0
      ],
      "name": "node_id5_1"
    },
    {
      "mesh": 0,
      "name": "Object_5"
    }
  ],
  "samplers": [
    {
      "magFilter": 9729,
      "minFilter": 9987,
      "wrapS": 10497,
      "wrapT": 10497
    }
  ],
  "scene": 0,
  "scenes": [
    {
      "name": "Sketchfab_Scene",
      "nodes": [
        0
      ]
    }
  ],
  "textures": [
    {
      "sampler": 0,
      "source": 0
    },
    {
      "sampler": 0,
      "source": 1
    }
  ]
}
