{
  "accessors": [
    {
      "bufferView": 2,
      "componentType": 5126,
      "count": 516,
      "max": [
        59.88119888305664,
        465.12969970703125,
        21.682519912719727
      ],
      "min": [
        -184.0818328857422,
        0.0,
        -24.270719528198242
      ],
      "type": "VEC3"
    },
    {
      "bufferView": 2,
      "byteOffset": 6192,
      "componentType": 5126,
      "count": 516,
      "max": [
        0.9998721480369568,
        0.7129063606262207,
        0.999943196773529
      ],
      "min": [
        -0.9999011754989624,
        -0.7017711997032166,
        -0.999943196773529
      ],
      "type": "VEC3"
    },
    {
      "bufferView": 3,
      "componentType": 5126,
      "count": 516,
      "max": [
        0.9999183416366577,
        0.7193999886512756,
        1.0,
        1.0
      ],
      "min": [
        -0.9998521208763123,
        -0.7220977544784546,
        -1.0,
        1.0
      ],
      "type": "VEC4"
    },
    {
      "bufferView": 1,
      "componentType": 5126,
      "count": 516,
      "max": [
        0.9985399842262268,
        10.0
      ],
      "min": [
        0.0004900000058114529,
        0.04326999932527542
      ],
      "type": "VEC2"
    },
    {
      "bufferView": 0,
      "componentType": 5125,
      "count": 2640,
      "type": "SCALAR"
    },
    {
      "bufferView": 2,
      "byteOffset": 12384,
      "componentType": 5126,
      "count": 88,
      "max": [
        64.5530776977539,
        517.8787231445313,
        20.791980743408203
      ],
      "min": [
        -187.76858520507813,
        375.8375549316406,
        -22.307159423828125
      ],
      "type": "VEC3"
    },
    {
      "bufferView": 2,
      "byteOffset": 13440,
      "componentType": 5126,
      "count": 88,
      "max": [
        0.9692471623420715,
        0.9516780972480774,
        0.9696407318115234
      ],
      "min": [
        -0.9715441465377808,
        -0.24871863424777985,
        -0.9691980481147766
      ],
      "type": "VEC3"
    },
    {
      "bufferView": 3,
      "byteOffset": 8256,
      "componentType": 5126,
      "count": 88,
      "max": [
        0.9781907200813293,
        0.19944767653942108,
        0.99876868724823,
        1.0
      ],
      "min": [
        -0.9946051239967346,
        -0.48886844515800476,
        -0.9988270998001099,
        -1.0
      ],
      "type": "VEC4"
    },
    {
      "bufferView": 1,
      "byteOffset": 4128,
      "componentType": 5126,
      "count": 88,
      "max": [
        0.9985399842262268,
        0.7381700277328491
      ],
      "min": [
        0.0004900000058114529,
        0.0
      ],
      "type": "VEC2"
    },
    {
      "bufferView": 0,
      "byteOffset": 10560,
      "componentType": 5125,
      "count": 336,
      "type": "SCALAR"
    },
    {
      "bufferView": 2,
      "byteOffset": 14496,
      "componentType": 5126,
      "count": 1800,
      "max": [
        272.46221923828125,
        628.3922729492188,
        197.60247802734375
      ],
      "min": [
        -357.1790466308594,
        201.5316925048828,
        -204.70291137695313
      ],
      "type": "VEC3"
    },
    {
      "bufferView": 2,
      "byteOffset": 36096,
      "componentType": 5126,
      "count": 1800,
      "max": [
        0.5506078004837036,
        0.9999697804450989,
        0.42481985688209534
      ],
      "min": [
        -0.7842890620231628,
        0.5895189046859741,
        -0.46848854422569275
      ],
      "type": "VEC3"
    },
    {
      "bufferView": 3,
      "byteOffset": 9664,
      "componentType": 5126,
      "count": 1800,
      "max": [
        0.9998602867126465,
        0.7845340967178345,
        0.9997791051864624,
        1.0
      ],
      "min": [
        -0.9996097087860107,
        -0.8068326115608215,
        -0.9997577667236328,
        -1.0
      ],
      "type": "VEC4"
    },
    {
      "bufferView": 1,
      "byteOffset": 4832,
      "componentType": 5126,
      "count": 1800,
      "max": [
        1.0,
        1.0
      ],
      "min": [
        0.0,
        -1.0
      ],
      "type": "VEC2"
    },
    {
      "bufferView": 0,
      "byteOffset": 11904,
      "componentType": 5125,
      "count": 7776,
      "type": "SCALAR"
    },
    {
      "bufferView": 2,
      "byteOffset": 57696,
      "componentType": 5126,
      "count": 882,
      "max": [
        112.09351348876953,
        557.939453125,
        52.15066146850586
      ],
      "min": [
        -225.8843231201172,
        338.412109375,
        -58.67736053466797
      ],
      "type": "VEC3"
    },
    {
      "bufferView": 2,
      "byteOffset": 68280,
      "componentType": 5126,
      "count": 882,
      "max": [
        0.9992192983627319,
        0.9997702240943909,
        0.9939689040184021
      ],
      "min": [
        -0.9999773502349854,
        -0.9535619020462036,
        -0.9857495427131653
      ],
      "type": "VEC3"
    },
    {
      "bufferView": 3,
      "byteOffset": 38464,
      "componentType": 5126,
      "count": 882,
      "max": [
        0.9992642998695374,
        0.8133715987205505,
        0.9997859597206116,
        1.0
      ],
      "min": [
        -0.9985782504081726,
        -0.9467986822128296,
        -0.999877393245697,
        -1.0
      ],
      "type": "VEC4"
    },
    {
      "bufferView": 1,
      "byteOffset": 19232,
      "componentType": 5126,
      "count": 882,
      "max": [
        0.9985399842262268,
        1.0
      ],
      "min": [
        0.0004900000058114529,
        0.0
      ],
      "type": "VEC2"
    },
    {
      "bufferView": 0,
      "byteOffset": 43008,
      "componentType": 5125,
      "count": 3258,
      "type": "SCALAR"
    },
    {
      "bufferView": 2,
      "byteOffset": 78864,
      "componentType": 5126,
      "count": 1506,
      "max": [
        103.88018035888672,
        484.2263488769531,
        52.518218994140625
      ],
      "min": [
        -211.6658477783203,
        333.6950988769531,
        -43.256080627441406
      ],
      "type": "VEC3"
    },
    {
      "bufferView": 2,
      "byteOffset": 96936,
      "componentType": 5126,
      "count": 1506,
      "max": [
        0.9990683197975159,
        0.9997660517692566,
        0.9987751245498657
      ],
      "min": [
        -0.9990683197975159,
        -0.9997660517692566,
        -0.9987751245498657
      ],
      "type": "VEC3"
    },
    {
      "bufferView": 3,
      "byteOffset": 52576,
      "componentType": 5126,
      "count": 1506,
      "max": [
        0.9998862743377686,
        0.9453392028808594,
        0.999998152256012,
        1.0
      ],
      "min": [
        -0.9993895292282104,
        -0.9571698307991028,
        -0.9996316432952881,
        -1.0
      ],
      "type": "VEC4"
    },
    {
      "bufferView": 1,
      "byteOffset": 26288,
      "componentType": 5126,
      "count": 1506,
      "max": [
        1.0,
        1.0
      ],
      "min": [
        0.0,
        0.0
      ],
      "type": "VEC2"
    },
    {
      "bufferView": 0,
      "byteOffset": 56040,
      "componentType": 5125,
      "count": 5880,
      "type": "SCALAR"
    }
  ],
  "asset": {
    "extras": {
      "author": "evolveduk (https://sketchfab.com/evolveduk)",
      "license": "CC-BY-4.0 (http://creativecommons.org/licenses/by/4.0/)",
      "source": "https://sketchfab.com/3d-models/coconut-palm-26e787f2ff2e4c0fb004c3b0210805a3",
      "title": "Coconut Palm"
    },
    "generator": "Sketchfab-14.52.0",
    "version": "2.0"
  },
  "bufferViews": [
    {
      "buffer": 0,
      "byteLength": 79560,
      "name": "floatBufferViews",
      "target": 34963
    },
    {
      "buffer": 0,
      "byteLength": 38336,
      "byteOffset": 79560,
      "byteStride": 8,
      "name": "floatBufferViews",
      "target": 34962
    },
    {
      "buffer": 0,
      "byteLength": 115008,
      "byteOffset": 117896,
      "byteStride": 12,
      "name": "floatBufferViews",
      "target": 34962
    },
    {
      "buffer": 0,
      "byteLength": 76672,
      "byteOffset": 232904,
      "byteStride": 16,
      "name": "floatBufferViews",
      "target": 34962
    }
  ],
  "buffers": [
    {
      "byteLength": 309576,
      "uri": "scene.bin"
    }
  ],
  "images": [
    {
      "uri": "textures/Tree_0Mat_baseColor.png"
    },
    {
      "uri": "textures/Tree_0Mat_metallicRoughness.png"
    },
    {
      "uri": "textures/Tree_0Mat_normal.png"
    },
    {
      "uri": "textures/Tree_1Mat_baseColor.png"
    },
    {
      "uri": "textures/Tree_1Mat_metallicRoughness.png"
    },
    {
      "uri": "textures/Tree_1Mat_normal.png"
    },
    {
      "uri": "textures/Tree_2Mat_baseColor.png"
    },
    {
      "uri": "textures/Tree_2Mat_metallicRoughness.png"
    },
    {
      "uri": "textures/Tree_2Mat_normal.png"
    },
    {
      "uri": "textures/Tree_3Mat_baseColor.png"
    },
    {
      "uri": "textures/Tree_3Mat_metallicRoughness.png"
    },
    {
      "uri": "textures/Tree_3Mat_normal.png"
    },
    {
      "uri": "textures/Tree_4Mat_baseColor.png"
    },
    {
      "uri": "textures/Tree_4Mat_metallicRoughness.png"
    },
    {
      "uri": "textures/Tree_4Mat_normal.png"
    }
  ],
  "materials": [
    {
      "name": "Tree_0Mat",
      "normalTexture": {
        "index": 2
      },
      "pbrMetallicRoughness": {
        "baseColorTexture": {
          "index": 0
        },
        "metallicFactor": 0.0,
        "metallicRoughnessTexture": {
          "index": 1
        }
      }
    },
    {
      "name": "Tree_1Mat",
      "normalTexture": {
        "index": 5
      },
      "pbrMetallicRoughness": {
        "baseColorTexture": {
          "index": 3
        },
        "metallicFactor": 0.0,
        "metallicRoughnessTexture": {
          "index": 4
        }
      }
    },
    {
      "alphaCutoff": 0.25811077957692086,
      "alphaMode": "MASK",
      "doubleSided": true,
      "name": "Tree_2Mat",
      "normalTexture": {
        "index": 8
      },
      "pbrMetallicRoughness": {
        "baseColorTexture": {
          "index": 6
        },
        "metallicFactor": 0.0,
        "metallicRoughnessTexture": {
          "index": 7
        }
      }
    },
    {
      "name": "Tree_3Mat",
      "normalTexture": {
        "index": 11
      },
      "pbrMetallicRoughness": {
        "baseColorTexture": {
          "index": 9
        },
        "metallicFactor": 0.0,
        "metallicRoughnessTexture": {
          "index": 10
        }
      }
    },
    {
      "name": "Tree_4Mat",
      "normalTexture": {
        "index": 14
      },
      "pbrMetallicRoughness": {
        "baseColorTexture": {
          "index": 12
        },
        "metallicFactor": 0.0,
        "metallicRoughnessTexture": {
          "index": 13
        }
      }
    }
  ],
  "meshes": [
    {
      "name": "Tree_0_Tree_0Mat_0",
      "primitives": [
        {
          "attributes": {
            "NORMAL": 1,
            "POSITION": 0,
            "TANGENT": 2,
            "TEXCOORD_0": 3
          },
          "indices": 4,
          "material": 0,
          "mode": 4
        }
      ]
    },
    {
      "name": "Tree_1_Tree_1Mat_0",
      "primitives": [
        {
          "attributes": {
            "NORMAL": 6,
            "POSITION": 5,
            "TANGENT": 7,
            "TEXCOORD_0": 8
          },
          "indices": 9,
          "material": 1,
          "mode": 4
        }
      ]
    },
    {
      "name": "Tree_2_Tree_2Mat_0",
      "primitives": [
        {
          "attributes": {
            "NORMAL": 11,
            "POSITION": 10,
            "TANGENT": 12,
            "TEXCOORD_0": 13
          },
          "indices": 14,
          "material": 2,
          "mode": 4
        }
      ]
    },
    {
      "name": "Tree_3_Tree_3Mat_0",
      "primitives": [
        {
          "attributes": {
            "NORMAL": 16,
            "POSITION": 15,
            "TANGENT": 17,
            "TEXCOORD_0": 18
          },
          "indices": 19,
          "material": 3,
          "mode": 4
        }
      ]
    },
    {
      "name": "Tree_4_Tree_4Mat_0",
      "primitives": [
        {
          "attributes": {
            "NORMAL": 21,
            "POSITION": 20,
            "TANGENT": 22,
            "TEXCOORD_0": 23
          },
          "indices": 24,
          "material": 4,
          "mode": 4
        }
      ]
    }
  ],
  "nodes": [
    {
      "children": [
        1
      ],
      "matrix": [
        1.0,
        0.0,
        0.0,
        0.0,
        0.0,
        2.220446049250313e-16,
        -1.0,
        0.0,
        0.0,
        1.0,
        2.220446049250313e-16,
        0.0,
        0.0,
        0.0,
        0.0,
        1.0
      ],
      "name": "Sketchfab_model"
    },
    {
      "children": [
        2
      ],
      "matrix": [
        0.009999999776482582,
        0.0,
        0.0,
        0.0,
        0.0,
        0.0,
        0.009999999776482582,
        0.0,
        0.0,
        -0.009999999776482582,
        0.0,
        0.0,
        0.0,
        0.0,
        0.0,
        1.0
      ],
      "name": "coconut palm.fbx"
    },
    {
      "children": [
        3
      ],
      "name": "RootNode"
    },
    {
      "children": [
        4,
        5
      ],
      "name": "Tree_0"
    },
    {
      "mesh": 0,
      "name": "Tree_0_Tree_0Mat_0"
    },
    {
      "children": [
        6,
        7
      ],
      "name": "Tree_1"
    },
    {
      "mesh": 1,
      "name": "Tree_1_Tree_1Mat_0"
    },
    {
      "children": [
        8,
        9
      ],
      "name": "Tree_2"
    },
    {
      "mesh": 2,
      "name": "Tree_2_Tree_2Mat_0"
    },
    {
      "children": [
        10,
        11
      ],
      "name": "Tree_3"
    },
    {
      "mesh": 3,
      "name": "Tree_3_Tree_3Mat_0"
    },
    {
      "children": [
        12
      ],
      "name": "Tree_4"
    },
    {
      "mesh": 4,
      "name": "Tree_4_Tree_4Mat_0"
    }
  ],
  "samplers": [
    {
      "magFilter": 9729,
      "minFilter": 9987,
      "wrapS": 10497,
      "wrapT": 10497
    }
  ],
  "scene": 0,
  "scenes": [
    {
      "name": "Sketchfab_Scene",
      "nodes": [
        0
      ]
    }
  ],
  "textures": [
    {
      "sampler": 0,
      "source": 0
    },
    {
      "sampler": 0,
      "source": 1
    },
    {
      "sampler": 0,
      "source": 2
    },
    {
      "sampler": 0,
      "source": 3
    },
    {
      "sampler": 0,
      "source": 4
    },
    {
      "sampler": 0,
      "source": 5
    },
    {
      "sampler": 0,
      "source": 6
    },
    {
      "sampler": 0,
      "source": 7
    },
    {
      "sampler": 0,
      "source": 8
    },
    {
      "sampler": 0,
      "source": 9
    },
    {
      "sampler": 0,
      "source": 10
    },
    {
      "sampler": 0,
      "source": 11
    },
    {
      "sampler": 0,
      "source": 12
    },
    {
      "sampler": 0,
      "source": 13
    },
    {
      "sampler": 0,
      "source": 14
    }
  ]
}
